<?xml version="1.0" encoding="UTF-8" standalone="no"?>
<!-- Created with Inkscape (http://www.inkscape.org/) -->

<svg
   xmlns:dc="http://purl.org/dc/elements/1.1/"
   xmlns:cc="http://creativecommons.org/ns#"
   xmlns:rdf="http://www.w3.org/1999/02/22-rdf-syntax-ns#"
   xmlns:svg="http://www.w3.org/2000/svg"
   xmlns="http://www.w3.org/2000/svg"
   xmlns:sodipodi="http://sodipodi.sourceforge.net/DTD/sodipodi-0.dtd"
   xmlns:inkscape="http://www.inkscape.org/namespaces/inkscape"
   width="210mm"
   height="297mm"
   viewBox="0 0 744.09448819 1052.3622047"
   id="svg2"
   version="1.1"
   inkscape:version="0.91 r13725"
   sodipodi:docname="keibai-logo.svg"
   inkscape:export-filename="/home/eduard/Dropbox/TRABAJOS/MASTER/1st/1Q/ITProject/keibai-logo3.png"
   inkscape:export-xdpi="92.186119"
   inkscape:export-ydpi="92.186119">
  <defs
     id="defs4" />
  <sodipodi:namedview
     id="base"
     pagecolor="#ffffff"
     bordercolor="#666666"
     borderopacity="1.0"
     inkscape:pageopacity="0.0"
     inkscape:pageshadow="2"
     inkscape:zoom="1.4"
     inkscape:cx="125.44562"
     inkscape:cy="622.67683"
     inkscape:document-units="px"
     inkscape:current-layer="layer4"
     showgrid="false"
     inkscape:window-width="1920"
     inkscape:window-height="983"
     inkscape:window-x="1600"
     inkscape:window-y="27"
     inkscape:window-maximized="1" />
  <metadata
     id="metadata7">
    <rdf:RDF>
      <cc:Work
         rdf:about="">
        <dc:format>image/svg+xml</dc:format>
        <dc:type
           rdf:resource="http://purl.org/dc/dcmitype/StillImage" />
        <dc:title></dc:title>
      </cc:Work>
    </rdf:RDF>
  </metadata>
  <g
     inkscape:groupmode="layer"
     id="layer4"
     inkscape:label="Circle">
    <circle
       style="fill:#ff6216;fill-opacity:0.94117647;stroke:none;stroke-width:0.77712077;stroke-opacity:1"
       id="path4180"
       cx="247.14285"
       cy="448.07648"
       r="243.68289" />
  </g>
  <g
     inkscape:groupmode="layer"
     id="layer5"
     inkscape:label="K up">
    <path
       style="fill:#ffffff;fill-opacity:1;fill-rule:evenodd;stroke:#ffffff;stroke-width:1.00216401px;stroke-linecap:butt;stroke-linejoin:miter;stroke-opacity:1"
       d="m 230.27606,453.00468 117.09302,-117.97853 5.03222,-1.8407 6.3222,2.16781 6.34542,5.41779 5.10185,7.90919 1.95526,8.8565 -2.46969,7.42028 -140.85396,146.62786 z"
       id="path4251"
       inkscape:connector-curvature="0" />
  </g>
  <g
     inkscape:label="K down"
     id="g4253"
     inkscape:groupmode="layer">
    <path
       inkscape:connector-curvature="0"
       id="path4255"
       d="m 236.70627,521.79419 120.11031,109.6895 5.13841,1.57825 6.42301,-2.36738 6.42301,-5.52393 5.13841,-7.89134 1.9269,-8.68046 -2.5692,-7.1022 -144.51776,-136.52002 z"
       style="fill:#ffffff;fill-opacity:1;fill-rule:evenodd;stroke:#ffffff;stroke-width:0.99671859px;stroke-linecap:butt;stroke-linejoin:miter;stroke-opacity:1" />
  </g>
  <g
     inkscape:groupmode="layer"
     id="layer2"
     inkscape:label="Hammer Base">
    <path
       style="fill:#ffffff;fill-opacity:1;fill-rule:evenodd;stroke:#ffffff;stroke-width:0.97314495px;stroke-linecap:butt;stroke-linejoin:miter;stroke-opacity:1"
       d="m 194.74697,375.33609 -0.66623,258.18145 0,5.80183 2.74228,6.44662 3.60018,4.1352 6.13751,1.83506 5.6605,0.62035 6.62188,0.1502 6.66823,0.0389 c 2.04557,-0.13516 4.54403,-0.53485 6.00434,-0.82234 1.4603,-0.28749 4.03789,-2.11483 4.03789,-2.11483 l 2.3318,-2.357 2.54001,-6.75369 -0.37477,-6.98032 1.9987,-257.45622 -46.63609,-4.35138 z"
       id="path4152"
       inkscape:connector-curvature="0"
       sodipodi:nodetypes="cccccccccsccccccc" />
  </g>
  <g
     inkscape:groupmode="layer"
     id="layer3"
     inkscape:label="Hammer Left">
    <path
       style="fill:#ffffff;fill-opacity:1;fill-rule:evenodd;stroke:#ffffff;stroke-width:0.93350798px;stroke-linecap:butt;stroke-linejoin:miter;stroke-opacity:1"
       d="m 111.14046,272.5206 0.0537,24.42756 0.18206,82.83704 0.4715,1.41448 c 1.31766,2.53851 1.24655,2.24675 1.24655,2.24675 l 1.47576,0.89477 4.27082,0.0756 6.44441,0.0833 4.29042,-0.0274 c 0.90661,-0.35083 1.41883,-0.70166 2.12825,-1.05249 l 1.13829,-3.17788 0.0286,-1.31559 c 0,0 -0.22992,-104.32515 -0.27741,-105.69896 -0.0429,-1.24124 -0.0208,-3.77847 -0.0208,-3.77847 l -2.15033,-2.40038 -3.48675,-1.12928 -5.4667,0 c -3.24586,0.0786 -4.82756,0.15716 -6.08488,0.23574 l -2.87716,1.296 -1.33236,2.7313 z"
       id="path4167"
       inkscape:connector-curvature="0"
       sodipodi:nodetypes="ccccccccccccscccccccc" />
  </g>
  <g
     inkscape:label="Hammer Body"
     inkscape:groupmode="layer"
     id="layer1">
    <rect
       style="fill:#ffffff;fill-opacity:1;stroke:#ffffff;stroke-width:0.93350798;stroke-opacity:1"
       id="rect4136"
       width="155.36241"
       height="104.68626"
       x="138.05003"
       y="272.3356" />
  </g>
  <g
     inkscape:label="Hammer Right"
     id="g4173"
     inkscape:groupmode="layer">
    <path
       sodipodi:nodetypes="ccccccccccccscccccccc"
       inkscape:connector-curvature="0"
       id="path4175"
       d="m 300.68055,272.0491 0.0537,24.42756 0.18206,82.83705 0.4715,1.41448 c 1.31766,2.53851 1.24655,2.24674 1.24655,2.24674 l 1.47576,0.89477 4.27081,0.0757 6.44442,0.0833 4.29042,-0.0274 c 0.9066,-0.35083 1.41882,-0.70166 2.12825,-1.05249 l 1.13829,-3.17788 0.0285,-1.3156 c 0,0 -0.22992,-104.32514 -0.27741,-105.69895 -0.0429,-1.24123 -0.0208,-3.77847 -0.0208,-3.77847 l -2.15032,-2.40038 -3.48676,-1.12929 -5.4667,0 c -3.24587,0.0786 -4.82757,0.15717 -6.08487,0.23574 l -2.87716,1.296 -1.33237,2.73131 z"
       style="fill:#ffffff;fill-opacity:1;fill-rule:evenodd;stroke:#ffffff;stroke-width:0.93350798px;stroke-linecap:butt;stroke-linejoin:miter;stroke-opacity:1" />
  </g>
</svg>
